# ProBuilder 5.0.7
# https://unity3d.com/unity/features/worldbuilding/probuilder
# 2024-03-20 21:26:58

mtllib ./Level06Border03.mtl
o Level06Border03

g PolyShape (3)
v -1.436626 5 -2.795404
v 1.12119 5 2.161765
v 10.5431 5.000002 1.684104
v 11.5417 4.999971 -0.3003859
v 11.89573 4.999966 -4.116609
v 11.19121 4.999965 -5.942705
v 9.036855 4.999969 -7.149461
v 8.742444 4.999966 -10.12682
v 7.686635 4.999965 -12.01211
v 3.433774 4.999973 -13.62671
v 0.5779845 4.999981 -12.83863
v -1.58131 5 -10.56075
v 3.433762 -2.670288E-05 -13.6267
v -1.581322 0 -10.56074
v 0.5779724 -1.907349E-05 -12.83862
v 7.686623 -3.528595E-05 -12.0121
v -1.436638 0 -2.795395
v 9.036842 -3.051758E-05 -7.149452
v 8.742432 -3.433228E-05 -10.12681
v 1.121178 0 2.161774
v 10.54309 1.907349E-06 1.684113
v 11.54169 -2.861023E-05 -0.3003769
v 11.89572 -3.433228E-05 -4.1166
v 11.19119 -3.528595E-05 -5.942696

vt 1.436638 -2.795395
vt -1.121178 2.161774
vt -10.54309 1.684113
vt -11.54169 -0.3003769
vt -11.89572 -4.1166
vt -11.19119 -5.942696
vt -9.036842 -7.149452
vt -8.742432 -10.12681
vt -7.686623 -12.0121
vt -3.433762 -13.6267
vt -0.5779724 -12.83862
vt 1.581322 -10.56074
vt 3.433762 -13.6267
vt -1.581322 -10.56074
vt 0.5779724 -12.83862
vt 7.686623 -12.0121
vt -1.436638 -2.795395
vt 9.036842 -7.149452
vt 8.742432 -10.12681
vt 1.121178 2.161774
vt 10.54309 1.684113
vt 11.54169 -0.3003769
vt 11.89572 -4.1166
vt 11.19119 -5.942696
vt -6.576526 -4.912826E-06
vt -9.715206 -2.398631E-05
vt -6.57654 4.999995
vt -9.71522 4.999976
vt -3.972414 -6.716521E-06
vt -6.934947 -1.434592E-05
vt -3.972428 4.999993
vt -6.934961 4.999986
vt 1.62636 7.746039E-06
vt -2.92268 -8.370303E-07
vt 1.626352 5.000008
vt -2.922688 4.999999
vt -2.821673 -3.412614E-06
vt -10.58836 -3.412614E-06
vt -2.821681 4.999997
vt -10.58837 4.999997
vt 6.724689 1.422675E-06
vt 4.563889 2.37635E-06
vt 6.72469 5.000001
vt 4.56389 5.000002
vt 9.217375 -8.768005E-06
vt 6.225498 -4.953307E-06
vt 9.217381 4.999991
vt 6.225505 4.999995
vt 2.435216 1.525918E-08
vt -3.14295 1.525897E-08
vt 2.435214 5
vt -3.142952 5
vt 10.44429 -1.771495E-06
vt 1.010285 -3.678844E-06
vt 10.44431 4.999998
vt 1.010298 4.999996
vt 5.456335 -1.427902E-05
vt 3.234757 1.623856E-05
vt 5.456348 4.999986
vt 3.23477 5.000016
vt -4.390247 -7.652919E-07
vt -6.859556 -5.533663E-06
vt -4.390253 4.999999
vt -6.859562 4.999994
vt 1.516105 2.021387E-06
vt -0.4411843 2.975061E-06
vt 1.516109 5.000002
vt -0.4411803 5.000003
vt 5.197834 -7.945639E-06
vt 1.365225 -2.223594E-06
vt 5.197845 4.999992
vt 1.365235 4.999998

vn 2.814058E-06 1 -9.710459E-07
vn -1.886772E-06 -1 5.623212E-06
vn -0.7257463 5.839544E-07 -0.6879625
vn -0.2660151 -1.011019E-06 -0.9639689
vn 0.3549323 -2.467998E-06 -0.934892
vn -0.9998265 2.465202E-06 0.01862876
vn 0.872497 -2.918966E-06 -0.4886194
vn 0.9951466 -2.63644E-06 -0.09840336
vn -0.8886735 2.992005E-06 0.4585406
vn 0.05063182 1.660302E-06 0.9987174
vn 0.8932793 -1.408482E-06 0.4495021
vn 0.4887022 -2.792627E-06 -0.8724507
vn 0.9329718 -2.965575E-06 -0.3599494
vn 0.9957246 -2.301575E-06 0.09237227

usemtl fullyTransparent
f 11/11/1 12/12/1 10/10/1
f 12/12/1 9/9/1 10/10/1
f 12/12/1 1/1/1 9/9/1
f 8/8/1 9/9/1 7/7/1
f 9/9/1 1/1/1 7/7/1
f 2/2/1 7/7/1 1/1/1
f 3/3/1 7/7/1 2/2/1
f 3/3/1 4/4/1 7/7/1
f 6/6/1 7/7/1 5/5/1
f 7/7/1 4/4/1 5/5/1
f 23/23/2 22/22/2 18/18/2
f 23/23/2 18/18/2 24/24/2
f 18/18/2 22/22/2 21/21/2
f 20/20/2 18/18/2 21/21/2
f 17/17/2 18/18/2 20/20/2
f 18/18/2 17/17/2 16/16/2
f 18/18/2 16/16/2 19/19/2
f 16/16/2 17/17/2 14/14/2
f 13/13/2 16/16/2 14/14/2
f 13/13/2 14/14/2 15/15/2
f 11/28/3 15/26/3 14/25/3
f 14/25/3 12/27/3 11/28/3
f 10/32/4 13/30/4 15/29/4
f 15/29/4 11/31/4 10/32/4
f 9/36/5 16/34/5 13/33/5
f 13/33/5 10/35/5 9/36/5
f 12/40/6 14/38/6 17/37/6
f 17/37/6 1/39/6 12/40/6
f 8/44/7 19/42/7 16/41/7
f 16/41/7 9/43/7 8/44/7
f 7/48/8 18/46/8 19/45/8
f 19/45/8 8/47/8 7/48/8
f 1/52/9 17/50/9 20/49/9
f 20/49/9 2/51/9 1/52/9
f 2/56/10 20/54/10 21/53/10
f 21/53/10 3/55/10 2/56/10
f 3/60/11 21/58/11 22/57/11
f 22/57/11 4/59/11 3/60/11
f 6/64/12 24/62/12 18/61/12
f 18/61/12 7/63/12 6/64/12
f 5/68/13 23/66/13 24/65/13
f 24/65/13 6/67/13 5/68/13
f 4/72/14 22/70/14 23/69/14
f 23/69/14 5/71/14 4/72/14

