# ProBuilder 5.0.7
# https://unity3d.com/unity/features/worldbuilding/probuilder
# 2024-03-20 21:26:45

mtllib ./Level06Border02.mtl
o Level06Border02

g PolyShape
v -0.04618842 5 -0.2050141
v 2.777962 5 -2.169602
v 4.847656 5 -1.979005
v 5.766823 5 -0.634549
v 2.977936 5 1.198779
v -0.08160407 5 0.8535377
v -0.081604 0 0.8535385
v -0.04618835 0 -0.2050133
v 2.977936 4.768372E-07 1.19878
v 2.777962 0 -2.169601
v 4.847656 -4.768372E-07 -1.979004
v 5.766823 0 -0.6345482

vt 0.04618835 -0.2050133
vt -2.777962 -2.169601
vt -4.847656 -1.979004
vt -5.766823 -0.6345482
vt -2.977936 1.19878
vt 0.081604 0.8535385
vt -0.081604 0.8535385
vt -0.04618835 -0.2050133
vt 2.977936 1.19878
vt 2.777962 -2.169601
vt 4.847656 -1.979004
vt 5.766823 -0.6345482
vt 0.8557899 1.006495E-09
vt -0.2033542 1.006495E-09
vt 0.8557891 5
vt -0.203355 5
vt 3.093574 3.346611E-07
vt 0.01461737 -1.421761E-07
vt 3.093574 5
vt 0.01461721 5
vt -0.07915777 2.816202E-08
vt -3.519424 2.816203E-08
vt -0.07915819 5
vt -3.519424 5
vt -2.567301 3.44042E-07
vt -4.645753 -1.327952E-07
vt -2.567301 5
vt -4.645753 5
vt -1.102229 5.301683E-09
vt -2.730857 4.821388E-07
vt -1.102228 5
vt -2.730856 5
vt 5.167429 -3.678275E-07
vt 1.829917 1.090097E-07
vt 5.167429 5
vt 1.829918 5

vn -1.249186E-07 1 -7.057146E-08
vn 1.552664E-07 -1 5.194701E-09
vn -0.9994408 -1.898411E-08 -0.03343799
vn -0.1121294 1.658405E-07 0.9936936
vn -0.571057 -1.446627E-07 -0.8209104
vn 0.09170168 -1.424484E-07 -0.9957865
vn 0.8255144 -9.419124E-08 -0.564381
vn 0.54931 1.394589E-07 0.8356187

usemtl fullyTransparent
f 5/5/1 1/1/1 6/6/1
f 5/5/1 2/2/1 1/1/1
f 5/5/1 3/3/1 2/2/1
f 4/4/1 3/3/1 5/5/1
f 9/9/2 11/11/2 12/12/2
f 10/10/2 11/11/2 9/9/2
f 8/8/2 10/10/2 9/9/2
f 7/7/2 8/8/2 9/9/2
f 1/16/3 8/14/3 7/13/3
f 7/13/3 6/15/3 1/16/3
f 6/20/4 7/18/4 9/17/4
f 9/17/4 5/19/4 6/20/4
f 2/24/5 10/22/5 8/21/5
f 8/21/5 1/23/5 2/24/5
f 3/28/6 11/26/6 10/25/6
f 10/25/6 2/27/6 3/28/6
f 4/32/7 12/30/7 11/29/7
f 11/29/7 3/31/7 4/32/7
f 5/36/8 9/34/8 12/33/8
f 12/33/8 4/35/8 5/36/8

