# ProBuilder 5.0.7
# https://unity3d.com/unity/features/worldbuilding/probuilder
# 2024-03-20 17:28:20

mtllib ./Level01Border02.mtl
o Level01Border02

g WorldBorder
v -2.886538E-07 10 1.806966E-07
v -3.425926 10 -0.8441446
v -6.71745 10 2.639128
v -5.779625 10 5.648041
v -3.487572 10 8.113338
v 1.090244 10 7.192043
v 3.380993 10 4.679207
v -5.779625 -2.384186E-07 5.648041
v 1.090244 0 7.192043
v -3.487572 -2.384186E-07 8.113338
v -6.717449 -2.384186E-07 2.639128
v -3.425926 0 -0.8441448
v 0 0 0
v 3.380993 0 4.679207

vt 2.886538E-07 1.806966E-07
vt 3.425926 -0.8441446
vt 6.71745 2.639128
vt 5.779625 5.648041
vt 3.487572 8.113338
vt -1.090244 7.192043
vt -3.380993 4.679207
vt -5.779625 5.648041
vt 1.090244 7.192043
vt -3.487572 8.113338
vt -6.717449 2.639128
vt -3.425926 -0.8441448
vt 3.380993 4.679207
vt -0.3501492 -3.417756E-08
vt -5.019751 -2.725961E-07
vt -0.3501494 10
vt -5.019752 10
vt 3.567271 -9.735713E-08
vt 0.2010867 -9.735713E-08
vt 3.567271 10
vt 0.2010863 10
vt 6.531862 -1.822931E-07
vt 1.739439 5.612552E-08
vt 6.531862 10
vt 1.73944 10
vt 3.67239 8.928269E-08
vt 0.5207129 8.928269E-08
vt 3.67239 10
vt 0.520713 10
vt 3.528392 1.366095E-15
vt 3.528392 10
vt 2.370407E-07 10
vt -5.772876 7.645936E-15
vt -5.772875 10
vt -1.180221 -9.956603E-08
vt -4.580497 -9.956603E-08
vt -1.180221 10
vt -4.580497 10

vn 0 1 0
vn 3.564411E-08 -1 -2.423125E-08
vn 0.1972963 4.70391E-09 0.9803439
vn -0.7323714 -1.74611E-08 0.6809053
vn -0.7268292 -1.82829E-08 -0.6868182
vn -0.954702 -4.552374E-08 0.2975635
vn 0.2392435 2.306612E-08 -0.9709596
vn 0.8105505 3.397968E-08 -0.5856688
vn 0.7390096 1.761936E-08 0.6736949

usemtl fullyTransparent
f 5/5/1 6/6/1 4/4/1
f 4/4/1 2/2/1 3/3/1
f 1/1/1 2/2/1 4/4/1
f 6/6/1 1/1/1 4/4/1
f 6/6/1 7/7/1 1/1/1
f 13/1/2 14/13/2 9/9/2
f 8/8/2 13/1/2 9/9/2
f 8/8/2 12/12/2 13/1/2
f 11/11/2 12/12/2 8/8/2
f 8/8/2 9/9/2 10/10/2
f 5/17/3 10/15/3 9/14/3
f 9/14/3 6/16/3 5/17/3
f 4/21/4 8/19/4 10/18/4
f 10/18/4 5/20/4 4/21/4
f 2/25/5 12/23/5 11/22/5
f 11/22/5 3/24/5 2/25/5
f 3/29/6 11/27/6 8/26/6
f 8/26/6 4/28/6 3/29/6
f 1/32/7 13/1/7 12/30/7
f 12/30/7 2/31/7 1/32/7
f 7/34/8 14/33/8 13/1/8
f 13/1/8 1/32/8 7/34/8
f 6/38/9 9/36/9 14/35/9
f 14/35/9 7/37/9 6/38/9

