# ProBuilder 5.0.7
# https://unity3d.com/unity/features/worldbuilding/probuilder
# 2024-03-20 17:23:49

mtllib ./Level01Border01.mtl
o Level01Border01

g WorldBorder
v -1.805164E-06 10 3.332588E-06
v -6.092905 10 -8.417729
v -14.0632 10 -16.17276
v -23.50562 10 -16.52894
v -24.30447 10 -14.18436
v -26.78624 10 2.159255
v -20.3725 10 9.661855
v -11.28984 10 8.108323
v -7.812269 10 4.799234
v -3.869093 10 6.649459
v -3.049284 10 10.61059
v -8.588461 10 14.04451
v -8.464838 10 22.54984
v -13.75675 10 20.68768
v -24.56862 10 21.823
v -28.7998 10 27.15871
v -22.62346 10 31.85604
v -10.28372 9.999998 32.64156
v 1.870577 10 38.82222
v 5.231791 10 38.72674
v 11.22656 10 48.62153
v 9.384222 10 52.75671
v 4.017492 9.99996 49.15275
v -4.960546 9.999956 52.7415
v -8.096647 9.999949 57.60977
v -3.993544 9.999933 66.17724
v -3.733847 9.999941 72.95995
v 0.6125623 9.999947 74.29179
v 6.424978 9.999943 72.8671
v 22.931 9.999929 72.74762
v 19.35995 9.999929 102.049
v -68.2049 9.999998 102.9237
v -67.9117 9.999998 -50.07551
v 84.54067 9.999998 -51.85188
v 83.25812 10.00003 101.0928
v 35.82171 9.999968 99.62118
v 23.42049 9.999964 72.81303
v 34.65261 9.999973 72.4479
v 33.46053 9.999971 67.5854
v 35.76801 9.999979 63.32641
v 42.60294 9.999986 59.93631
v 50.07003 9.999994 55.58952
v 55.65345 9.999998 53.72437
v 61.92081 10 55.35917
v 66.26767 9.999987 60.50724
v 65.03423 9.999994 69.62814
v 67.63008 10.00002 71.81741
v 71.78172 10 65.69446
v 74.60487 9.999998 57.50681
v 61.61563 10.00001 44.4022
v 48.82207 9.999998 45.07087
v 36.51497 9.999987 50.42337
v 30.30929 9.999982 53.78754
v 23.92645 10 49.61611
v 20.96034 9.999981 44.77843
v 21.67156 10 39.44296
v 27.50991 10 39.27952
v 39.67358 10 30.80533
v 45.41183 10 11.70626
v 49.37946 10 -7.55933
v 40.72295 10 -12.34878
v 31.50369 10 -13.77917
v 24.63949 10 -12.12768
v 12.22494 10 -12.32491
v 23.42049 -3.623962E-05 72.81303
v 34.65261 -2.670288E-05 72.4479
v 35.82171 -3.242493E-05 99.62118
v 33.46053 -2.861023E-05 67.5854
v 35.76801 -2.098083E-05 63.32641
v 42.60294 -1.430511E-05 59.9363
v 61.92081 1.907349E-06 55.35917
v 66.26767 -1.335144E-05 60.50723
v 65.03423 -5.722046E-06 69.62814
v 55.65345 -1.907349E-06 53.72437
v 50.07003 -5.722046E-06 55.58952
v 67.63008 2.098083E-05 71.81741
v 83.25812 2.861023E-05 101.0928
v 71.78172 3.814697E-06 65.69446
v 74.60487 -1.907349E-06 57.50681
v 23.92646 1.907349E-06 49.6161
v 36.51497 -1.335144E-05 50.42337
v 30.3093 -1.811981E-05 53.78753
v 21.67156 1.907349E-06 39.44295
v 27.50991 1.907349E-06 39.27952
v 20.96034 -1.907349E-05 44.77843
v 39.67358 1.907349E-06 30.80533
v 48.82207 -1.907349E-06 45.07087
v 61.61563 1.335144E-05 44.40219
v 45.41183 1.907349E-06 11.70626
v 49.37946 1.907349E-06 -7.559333
v 12.22494 1.907349E-06 -12.32491
v 31.5037 1.907349E-06 -13.77918
v 24.63949 1.907349E-06 -12.12769
v -6.092903 1.907349E-06 -8.417732
v 0 0 0
v -14.0632 1.907349E-06 -16.17277
v -13.75674 0 20.68768
v -8.588459 0 14.04451
v -8.464836 0 22.54984
v -7.812267 0 4.799231
v -3.869091 0 6.649456
v -11.28984 0 8.10832
v -3.049282 0 10.61058
v -20.3725 0 9.661852
v -24.56861 0 21.823
v -26.78624 0 2.159252
v -28.79979 0 27.1587
v 6.42498 -5.722046E-05 72.8671
v 22.931 -7.05719E-05 72.74762
v 19.35995 -7.05719E-05 102.049
v 0.6125641 -5.340576E-05 74.29179
v -3.733845 -5.912781E-05 72.95995
v -68.2049 -1.907349E-06 102.9237
v -8.096645 -5.149841E-05 57.60976
v -3.993542 -6.67572E-05 66.17724
v 4.017494 -4.005432E-05 49.15274
v 11.22657 1.907349E-06 48.62153
v 9.384224 1.907349E-06 52.7567
v 5.231792 1.907349E-06 38.72674
v 1.870579 0 38.82221
v -4.960545 -4.386902E-05 52.74149
v -10.28371 -1.907349E-06 32.64156
v -22.62346 0 31.85604
v -67.9117 -1.907349E-06 -50.07551
v -24.30447 1.907349E-06 -14.18436
v -23.50562 1.907349E-06 -16.52895
v 84.54067 -1.907349E-06 -51.85188
v 40.72295 1.907349E-06 -12.34878

vt 3.126388E-13 -2.273738E-13
vt 6.092903 -8.417732
vt 14.0632 -16.17277
vt 23.50562 -16.52895
vt 24.30447 -14.18436
vt 26.78624 2.159252
vt 20.3725 9.661852
vt 11.28984 8.10832
vt 7.812267 4.799231
vt 3.869091 6.649456
vt 3.049282 10.61058
vt 8.588459 14.04451
vt 8.464836 22.54984
vt 13.75674 20.68768
vt 24.56861 21.823
vt 28.79979 27.1587
vt 22.62346 31.85604
vt 10.28371 32.64156
vt -1.870579 38.82221
vt -5.231792 38.72674
vt -11.22657 48.62153
vt -9.384224 52.7567
vt -4.017494 49.15274
vt 4.960545 52.74149
vt 8.096645 57.60976
vt 3.993542 66.17724
vt 3.733845 72.95995
vt -0.6125641 74.29179
vt -6.42498 72.8671
vt -22.931 72.74762
vt -19.35995 102.049
vt 68.2049 102.9237
vt 67.9117 -50.07551
vt -84.54067 -51.85188
vt -83.25812 101.0928
vt -35.82171 99.62118
vt -23.42049 72.81303
vt -34.65261 72.4479
vt -33.46053 67.5854
vt -35.76801 63.32641
vt -42.60294 59.9363
vt -50.07003 55.58952
vt -55.65345 53.72437
vt -61.92081 55.35917
vt -66.26767 60.50723
vt -65.03423 69.62814
vt -67.63008 71.81741
vt -71.78172 65.69446
vt -74.60487 57.50681
vt -61.61563 44.40219
vt -48.82207 45.07087
vt -36.51497 50.42337
vt -30.3093 53.78753
vt -23.92646 49.6161
vt -20.96034 44.77843
vt -21.67156 39.44295
vt -27.50991 39.27952
vt -39.67358 30.80533
vt -45.41183 11.70626
vt -49.37946 -7.559333
vt -40.72295 -12.34878
vt -31.5037 -13.77918
vt -24.63949 -12.12769
vt -12.22494 -12.32491
vt 23.42049 72.81303
vt 34.65261 72.4479
vt 35.82171 99.62118
vt 33.46053 67.5854
vt 35.76801 63.32641
vt 42.60294 59.9363
vt 61.92081 55.35917
vt 66.26767 60.50723
vt 65.03423 69.62814
vt 55.65345 53.72437
vt 50.07003 55.58952
vt 67.63008 71.81741
vt 83.25812 101.0928
vt 71.78172 65.69446
vt 74.60487 57.50681
vt 23.92646 49.6161
vt 36.51497 50.42337
vt 30.3093 53.78753
vt 21.67156 39.44295
vt 27.50991 39.27952
vt 20.96034 44.77843
vt 39.67358 30.80533
vt 48.82207 45.07087
vt 61.61563 44.40219
vt 45.41183 11.70626
vt 49.37946 -7.559333
vt 12.22494 -12.32491
vt 31.5037 -13.77918
vt 24.63949 -12.12769
vt -6.092903 -8.417732
vt -14.0632 -16.17277
vt -13.75674 20.68768
vt -8.588459 14.04451
vt -8.464836 22.54984
vt -7.812267 4.799231
vt -3.869091 6.649456
vt -11.28984 8.10832
vt -3.049282 10.61058
vt -20.3725 9.661852
vt -24.56861 21.823
vt -26.78624 2.159252
vt -28.79979 27.1587
vt 6.42498 72.8671
vt 22.931 72.74762
vt 19.35995 102.049
vt 0.6125641 74.29179
vt -3.733845 72.95995
vt -68.2049 102.9237
vt -8.096645 57.60976
vt -3.993542 66.17724
vt 4.017494 49.15274
vt 11.22657 48.62153
vt 9.384224 52.7567
vt 5.231792 38.72674
vt 1.870579 38.82221
vt -4.960545 52.74149
vt -10.28371 32.64156
vt -22.62346 31.85604
vt -67.9117 -50.07551
vt -24.30447 -14.18436
vt -23.50562 -16.52895
vt 84.54067 -51.85188
vt 40.72295 -12.34878
vt -21.04236 -3.669534E-05
vt -32.28041 -2.715859E-05
vt -21.04236 9.999964
vt -32.28041 9.999973
vt 105.4553 -3.242493E-05
vt 75.91778 -3.623962E-05
vt 105.4553 9.999968
vt 75.91778 9.999964
vt 43.48479 -2.861023E-05
vt 38.64088 -2.098083E-05
vt 43.48479 9.999971
vt 38.64088 9.999979
vt 78.61523 -2.670288E-05
vt 73.60874 -2.861023E-05
vt 78.61523 9.999973
vt 73.60874 9.999971
vt -3.904404 3.838081E-06
vt -11.53389 1.05138E-05
vt -3.904403 10
vt -11.53389 10.00001
vt -82.24567 -9.465617E-07
vt -88.98344 -1.620535E-05
vt -82.24567 9.999999
vt -88.98345 9.999984
vt -51.08072 -9.57974E-06
vt -60.28464 -1.950345E-06
vt -51.08072 9.99999
vt -60.28464 9.999998
vt -67.41153 1.209633E-05
vt -73.88859 1.591103E-05
vt -67.41153 10.00001
vt -73.88859 10.00002
vt -29.87739 1.90948E-05
vt -35.7641 2.29095E-05
vt -29.87738 10.00002
vt -35.7641 10.00002
vt -6.665369 9.837951E-06
vt -15.30551 1.842102E-05
vt -6.665367 10.00001
vt -15.30551 10.00002
vt -94.60377 -5.722046E-06
vt -97.99955 2.098083E-05
vt -94.60377 9.999994
vt -97.99955 10.00002
vt 86.35289 2.861023E-05
vt 38.89365 -3.242493E-05
vt 86.35289 10.00003
vt 38.89365 9.999968
vt 21.48741 2.098083E-05
vt 14.08966 3.814697E-06
vt 21.48741 10.00002
vt 14.08966 10
vt 38.70733 3.814697E-06
vt 30.04662 -1.907349E-06
vt 38.70733 10
vt 30.04663 9.999998
vt 8.070306 7.350753E-06
vt 1.011416 2.582382E-06
vt 8.070304 10.00001
vt 1.011413 10
vt 54.79702 -6.069143E-06
vt 47.17196 1.395802E-05
vt 54.79702 9.999994
vt 47.17196 10.00001
vt -20.55938 1.695943E-05
vt -26.40002 1.695943E-05
vt -20.55938 10.00002
vt -26.40002 10.00002
vt 41.61632 -2.277473E-05
vt 36.23365 -1.793892E-06
vt 41.61633 9.999977
vt 36.23365 9.999998
vt 54.80491 3.911633E-06
vt 49.13032 -1.70692E-05
vt 54.80491 10
vt 49.13032 9.999983
vt -0.1186636 1.168864E-05
vt -14.94319 1.168864E-05
vt -0.1186598 10.00001
vt -14.94319 10.00001
vt 26.79575 1.936252E-05
vt 13.37509 7.918431E-06
vt 26.79575 10.00002
vt 13.37509 10.00001
vt 59.21406 3.146854E-05
vt 46.40304 1.620975E-05
vt 59.21406 10.00003
vt 46.40304 10.00002
vt 18.08684 7.050861E-06
vt -1.855629 7.050861E-06
vt 18.08684 10.00001
vt -1.855627 10.00001
vt 2.305588 4.61046E-06
vt -17.36431 4.61046E-06
vt 2.305591 10
vt -17.36431 10
vt 33.85287 4.996233E-07
vt 26.7928 4.996234E-07
vt 33.85287 10
vt 26.7928 10
vt 24.44374 -1.711421E-06
vt 12.02763 -1.711421E-06
vt 24.44374 9.999998
vt 12.02762 9.999998
vt 17.35951 1.907349E-06
vt 17.35951 10
vt -3.637308E-06 10
vt -10.39142 1.907349E-06
vt -10.39142 10
vt -10.23711 1.304174E-06
vt -21.35764 1.304174E-06
vt -10.23711 10
vt -21.35763 10
vt -13.91821 1.713255E-06
vt -22.42444 1.713255E-06
vt -13.91821 10
vt -22.42444 10
vt -0.4997597 1.018999E-05
vt -6.109746 1.018999E-05
vt -0.4997602 10.00001
vt -6.109747 10.00001
vt 5.033767 2.936524E-06
vt 0.6780849 2.936524E-06
vt 5.033768 10
vt 0.6780852 10
vt 13.76818 -1.446352E-07
vt 8.967805 -1.446351E-07
vt 13.76818 10
vt 8.967809 10
vt -5.727319 1.306835E-06
vt -9.772391 1.306835E-06
vt -5.727322 10
vt -9.772394 10
vt -8.182378 1.057394E-06
vt -14.69961 1.057394E-06
vt -8.182382 10
vt -14.69961 10
vt 21.70982 1.521296E-06
vt 12.49525 1.521296E-06
vt 21.70982 10
vt 12.49526 10
vt -15.842 6.879402E-06
vt -26.71331 6.879402E-06
vt -15.842 10.00001
vt -26.71331 10.00001
vt 15.76427 7.875617E-06
vt 5.893858 7.875617E-06
vt 15.76427 10.00001
vt 5.893857 10.00001
vt -32.36469 -4.98383E-07
vt -39.17444 -4.98383E-07
vt -32.3647 9.999999
vt -39.17444 9.999999
vt -5.897355 -5.732113E-05
vt -22.40381 -7.067256E-05
vt -5.897353 9.999943
vt -22.40381 9.999929
vt -69.43916 -7.654793E-05
vt -98.95737 -7.654793E-05
vt -69.43916 9.999924
vt -98.95737 9.999924
vt 17.09128 -5.648359E-05
vt 11.10681 -6.029829E-05
vt 17.09128 9.999944
vt 11.10681 9.99994
vt -17.8056 -5.516851E-05
vt -22.35148 -4.944647E-05
vt -17.8056 9.999945
vt -22.35148 9.99995
vt 18.33963 -7.076668E-05
vt -69.22958 -2.102134E-06
vt 18.33963 9.999929
vt -69.22958 9.999998
vt -48.46124 -4.065827E-05
vt -57.96056 -5.591705E-05
vt -48.46124 9.999959
vt -57.96056 9.999944
vt -65.97599 -6.551403E-05
vt -72.76368 -5.788464E-05
vt -65.97599 9.999934
vt -72.76368 9.999942
vt -39.84418 1.337141E-06
vt -44.37119 1.337141E-06
vt -39.84418 10
vt -44.3712 10
vt 37.20226 1.822157E-05
vt 30.73771 -2.37401E-05
vt 37.20226 10.00002
vt 30.73771 9.999976
vt -35.83306 7.533063E-06
vt -47.40216 7.533063E-06
vt -35.83306 10.00001
vt -47.40216 10.00001
vt -0.7675362 1.462052E-05
vt -4.130105 1.652787E-05
vt -0.7675343 10.00001
vt -4.130104 10.00002
vt -14.51356 -2.669578E-05
vt -24.18229 -3.051048E-05
vt -14.51356 9.999973
vt -24.18229 9.999969
vt -5.629046 1.248958E-05
vt -19.26456 1.439693E-05
vt -5.629046 10.00001
vt -19.26456 10.00001
vt 20.55397 1.305287E-05
vt 8.189249 1.114552E-05
vt 20.55397 10.00001
vt 8.189251 10.00001
vt -47.02446 -4.274111E-05
vt -52.81541 -5.037051E-05
vt -47.02446 9.999957
vt -52.81542 9.999949
vt 6.482753 1.636618E-05
vt -1.27689 1.636618E-05
vt 6.482752 10.00002
vt -1.276891 10.00002
vt 103.0543 -1.907349E-06
vt -49.94528 -1.907349E-06
vt 103.0543 9.999998
vt -49.94527 9.999998
vt 10.37481 5.716577E-06
vt -6.156152 3.809228E-06
vt 10.37481 10.00001
vt -6.156156 10
vt 8.064805 3.493587E-06
vt 5.58786 3.493587E-06
vt 8.0648 10
vt 5.587857 10
vt -14.66283 -4.163614E-06
vt -24.11197 -4.163614E-06
vt -14.66283 9.999996
vt -24.11197 9.999996
vt 67.32365 -2.130886E-05
vt -85.13907 -2.130886E-05
vt 67.32365 9.999979
vt -85.13907 9.999979
vt 38.34818 -3.307802E-06
vt 29.01862 -3.307802E-06
vt 38.34818 9.999997
vt 29.01862 9.999997
vt 39.54751 -7.00642E-06
vt 29.65439 -7.006419E-06
vt 39.54751 9.999993
vt 29.65439 9.999993
vt 93.3627 -5.264978E-06
vt 74.91138 9.993811E-06
vt 93.3627 9.999994
vt 74.91138 10.00001
vt 52.55897 -1.638321E-06
vt -100.3911 2.887926E-05
vt 52.55896 9.999998
vt -100.3911 10.00003

vn 4.186696E-08 1 1.96283E-07
vn 8.410387E-07 -1 -2.46761E-07
vn -0.03249098 -6.197162E-09 -0.999472
vn -0.9075955 0 0.4198458
vn -0.879247 0 -0.4763662
vn -0.9712392 0 0.2381059
vn -0.4443425 3.417423E-07 -0.895857
vn 0.7640588 2.461039E-07 -0.6451466
vn 0.9909796 -5.112184E-08 0.1340128
vn 0.2523984 3.69119E-07 -0.9676234
vn -0.3168401 3.61816E-07 -0.948479
vn -0.5030922 3.296786E-07 -0.8642328
vn 0.6447018 0 -0.7644342
vn -0.03100918 0 0.9995191
vn -0.8276777 0 -0.5612038
vn -0.9453793 0 -0.3259723
vn 0.4765852 -3.353608E-07 0.8791283
vn -0.5470687 -4.236687E-07 0.8370877
vn -0.02798204 3.759832E-07 -0.9996085
vn -0.9912323 -1.386587E-07 -0.1321307
vn -0.8525159 -3.619992E-07 0.5227012
vn -0.5716332 2.039691E-07 -0.8205093
vn 0.3988253 -3.49818E-07 0.9170269
vn 0.05219525 -3.809497E-07 0.9986368
vn -0.9577085 1.097642E-07 -0.2877403
vn -0.9794452 5.770987E-08 -0.2017106
vn 0.2339194 -2.335481E-07 0.972256
vn -0.01588441 -2.890959E-07 0.9998739
vn 0.7099802 -6.60614E-08 0.7042215
vn -0.8100653 -3.41633E-07 0.5863396
vn -0.697362 -3.380662E-07 0.7167191
vn 0.9998944 1.948727E-07 -0.01453322
vn -0.3319373 -4.23153E-07 0.9433015
vn 0.4247841 3.831958E-07 -0.9052947
vn -0.6893399 7.578223E-08 -0.724438
vn 0.9792474 2.544245E-07 -0.2026685
vn 0.5268993 -1.426682E-07 0.8499277
vn -0.1685952 2.498498E-07 -0.9856853
vn 0.1044329 -3.594648E-07 0.9945319
vn 0.7601103 3.618717E-07 -0.6497941
vn 0.7835397 -8.757473E-08 0.6213418
vn -0.00723862 -1.380657E-09 -0.9999738
vn 0.9926552 1.89334E-07 0.1209778
vn -0.2380644 -4.256924E-08 -0.9712494
vn 0.2929772 5.588096E-08 -0.9561195
vn 0.009988871 1.905226E-09 0.9999501
vn 0.901904 3.367953E-07 -0.4319366
vn 0.9992678 1.905952E-07 -0.03826002
vn 0.9134433 1.898026E-08 0.406966
vn -0.5574963 -4.230223E-07 0.8301795
vn 0.8552771 3.607977E-07 -0.518171
vn -0.02839324 3.762388E-07 -0.9995968
vn 0.3711708 -2.834241E-07 0.9285646
vn 0.4532762 4.264863E-07 -0.8913701
vn 0.06352919 3.928164E-07 -0.99798
vn 0.8406677 -4.62408E-08 0.5415514
vn 0.6053539 4.190954E-07 -0.7959564
vn -0.9999982 0 -0.00191633
vn 0.9886665 1.456211E-07 0.1501283
vn 0.9465645 5.751323E-08 0.3225147
vn -0.03769447 -3.883883E-07 0.9992893
vn -0.01165116 3.814438E-07 -0.9999321
vn -0.1533186 -2.827197E-07 0.9881768
vn -0.4841191 -2.920635E-07 0.8750021
vn -0.7102262 -2.685446E-07 0.7039736
vn 0.9999648 -3.198793E-09 0.008385444

usemtl fullyTransparent
f 36/36/1 38/38/1 37/37/1
f 38/38/1 40/40/1 39/39/1
f 38/38/1 41/41/1 40/40/1
f 46/46/1 45/45/1 44/44/1
f 46/46/1 44/44/1 43/43/1
f 46/46/1 43/43/1 42/42/1
f 46/46/1 42/42/1 41/41/1
f 41/41/1 38/38/1 46/46/1
f 36/36/1 46/46/1 38/38/1
f 36/36/1 47/47/1 46/46/1
f 36/36/1 35/35/1 47/47/1
f 35/35/1 48/48/1 47/47/1
f 35/35/1 49/49/1 48/48/1
f 53/53/1 52/52/1 54/54/1
f 55/55/1 57/57/1 56/56/1
f 55/55/1 54/54/1 57/57/1
f 52/52/1 57/57/1 54/54/1
f 57/57/1 52/52/1 58/58/1
f 52/52/1 51/51/1 58/58/1
f 51/51/1 50/50/1 58/58/1
f 50/50/1 59/59/1 58/58/1
f 50/50/1 60/60/1 59/59/1
f 63/63/1 62/62/1 64/64/1
f 1/1/1 64/64/1 2/2/1
f 2/2/1 64/64/1 3/3/1
f 13/13/1 12/12/1 14/14/1
f 8/8/1 10/10/1 9/9/1
f 8/8/1 11/11/1 10/10/1
f 12/12/1 11/11/1 8/8/1
f 7/7/1 12/12/1 8/8/1
f 14/14/1 12/12/1 7/7/1
f 14/14/1 7/7/1 15/15/1
f 15/15/1 7/7/1 6/6/1
f 15/15/1 6/6/1 16/16/1
f 31/31/1 30/30/1 29/29/1
f 31/31/1 29/29/1 28/28/1
f 31/31/1 28/28/1 27/27/1
f 32/32/1 31/31/1 27/27/1
f 27/27/1 26/26/1 25/25/1
f 32/32/1 27/27/1 25/25/1
f 22/22/1 21/21/1 23/23/1
f 23/23/1 21/21/1 20/20/1
f 19/19/1 23/23/1 20/20/1
f 23/23/1 19/19/1 24/24/1
f 24/24/1 19/19/1 18/18/1
f 17/17/1 24/24/1 18/18/1
f 17/17/1 25/25/1 24/24/1
f 32/32/1 25/25/1 17/17/1
f 17/17/1 16/16/1 32/32/1
f 16/16/1 33/33/1 32/32/1
f 16/16/1 6/6/1 33/33/1
f 6/6/1 5/5/1 33/33/1
f 5/5/1 4/4/1 33/33/1
f 4/4/1 3/3/1 33/33/1
f 33/33/1 3/3/1 34/34/1
f 3/3/1 64/64/1 34/34/1
f 64/64/1 62/62/1 34/34/1
f 61/61/1 34/34/1 62/62/1
f 60/60/1 34/34/1 61/61/1
f 50/50/1 34/34/1 60/60/1
f 50/50/1 49/49/1 34/34/1
f 35/35/1 34/34/1 49/49/1
f 79/79/2 127/126/2 77/77/2
f 127/126/2 79/79/2 88/88/2
f 90/90/2 127/126/2 88/88/2
f 128/127/2 127/126/2 90/90/2
f 92/92/2 127/126/2 128/127/2
f 127/126/2 92/92/2 91/91/2
f 127/126/2 91/91/2 96/95/2
f 127/126/2 96/95/2 124/123/2
f 124/123/2 96/95/2 126/125/2
f 124/123/2 126/125/2 125/124/2
f 124/123/2 125/124/2 106/105/2
f 124/123/2 106/105/2 107/106/2
f 113/112/2 124/123/2 107/106/2
f 113/112/2 107/106/2 123/122/2
f 123/122/2 114/113/2 113/112/2
f 121/120/2 114/113/2 123/122/2
f 122/121/2 121/120/2 123/122/2
f 122/121/2 120/119/2 121/120/2
f 121/120/2 120/119/2 116/115/2
f 119/118/2 116/115/2 120/119/2
f 119/118/2 117/116/2 116/115/2
f 116/115/2 117/116/2 118/117/2
f 114/113/2 112/111/2 113/112/2
f 114/113/2 115/114/2 112/111/2
f 112/111/2 110/109/2 113/112/2
f 112/111/2 111/110/2 110/109/2
f 111/110/2 108/107/2 110/109/2
f 108/107/2 109/108/2 110/109/2
f 107/106/2 106/105/2 105/104/2
f 106/105/2 104/103/2 105/104/2
f 105/104/2 104/103/2 97/96/2
f 104/103/2 98/97/2 97/96/2
f 102/101/2 98/97/2 104/103/2
f 102/101/2 103/102/2 98/97/2
f 101/100/2 103/102/2 102/101/2
f 100/99/2 101/100/2 102/101/2
f 97/96/2 98/97/2 99/98/2
f 96/95/2 91/91/2 94/94/2
f 94/94/2 91/91/2 95/1/2
f 91/91/2 92/92/2 93/93/2
f 89/89/2 90/90/2 88/88/2
f 86/86/2 89/89/2 88/88/2
f 86/86/2 88/88/2 87/87/2
f 86/86/2 87/87/2 81/81/2
f 86/86/2 81/81/2 84/84/2
f 80/80/2 84/84/2 81/81/2
f 84/84/2 80/80/2 85/85/2
f 83/83/2 84/84/2 85/85/2
f 80/80/2 81/81/2 82/82/2
f 78/78/2 79/79/2 77/77/2
f 76/76/2 78/78/2 77/77/2
f 76/76/2 77/77/2 67/67/2
f 73/73/2 76/76/2 67/67/2
f 66/66/2 73/73/2 67/67/2
f 73/73/2 66/66/2 70/70/2
f 70/70/2 75/75/2 73/73/2
f 75/75/2 74/74/2 73/73/2
f 74/74/2 71/71/2 73/73/2
f 71/71/2 72/72/2 73/73/2
f 69/69/2 70/70/2 66/66/2
f 68/68/2 69/69/2 66/66/2
f 65/65/2 66/66/2 67/67/2
f 38/131/3 66/129/3 65/128/3
f 65/128/3 37/130/3 38/131/3
f 37/135/4 65/133/4 67/132/4
f 67/132/4 36/134/4 37/135/4
f 40/139/5 69/137/5 68/136/5
f 68/136/5 39/138/5 40/139/5
f 39/143/6 68/141/6 66/140/6
f 66/140/6 38/142/6 39/143/6
f 41/147/7 70/145/7 69/144/7
f 69/144/7 40/146/7 41/147/7
f 45/151/8 72/149/8 71/148/8
f 71/148/8 44/150/8 45/151/8
f 46/155/9 73/153/9 72/152/9
f 72/152/9 45/154/9 46/155/9
f 44/159/10 71/157/10 74/156/10
f 74/156/10 43/158/10 44/159/10
f 43/163/11 74/161/11 75/160/11
f 75/160/11 42/162/11 43/163/11
f 42/167/12 75/165/12 70/164/12
f 70/164/12 41/166/12 42/167/12
f 47/171/13 76/169/13 73/168/13
f 73/168/13 46/170/13 47/171/13
f 36/175/14 67/173/14 77/172/14
f 77/172/14 35/174/14 36/175/14
f 48/179/15 78/177/15 76/176/15
f 76/176/15 47/178/15 48/179/15
f 49/183/16 79/181/16 78/180/16
f 78/180/16 48/182/16 49/183/16
f 53/187/17 82/185/17 81/184/17
f 81/184/17 52/186/17 53/187/17
f 54/191/18 80/189/18 82/188/18
f 82/188/18 53/190/18 54/191/18
f 57/195/19 84/193/19 83/192/19
f 83/192/19 56/194/19 57/195/19
f 56/199/20 83/197/20 85/196/20
f 85/196/20 55/198/20 56/199/20
f 55/203/21 85/201/21 80/200/21
f 80/200/21 54/202/21 55/203/21
f 58/207/22 86/205/22 84/204/22
f 84/204/22 57/206/22 58/207/22
f 52/211/23 81/209/23 87/208/23
f 87/208/23 51/210/23 52/211/23
f 51/215/24 87/213/24 88/212/24
f 88/212/24 50/214/24 51/215/24
f 59/219/25 89/217/25 86/216/25
f 86/216/25 58/218/25 59/219/25
f 60/223/26 90/221/26 89/220/26
f 89/220/26 59/222/26 60/223/26
f 63/227/27 93/225/27 92/224/27
f 92/224/27 62/226/27 63/227/27
f 64/231/28 91/229/28 93/228/28
f 93/228/28 63/230/28 64/231/28
f 1/234/29 95/1/29 91/232/29
f 91/232/29 64/233/29 1/234/29
f 2/236/30 94/235/30 95/1/30
f 95/1/30 1/234/30 2/236/30
f 3/240/31 96/238/31 94/237/31
f 94/237/31 2/239/31 3/240/31
f 13/244/32 99/242/32 98/241/32
f 98/241/32 12/243/32 13/244/32
f 14/248/33 97/246/33 99/245/33
f 99/245/33 13/247/33 14/248/33
f 10/252/34 101/250/34 100/249/34
f 100/249/34 9/251/34 10/252/34
f 9/256/35 100/254/35 102/253/35
f 102/253/35 8/255/35 9/256/35
f 11/260/36 103/258/36 101/257/36
f 101/257/36 10/259/36 11/260/36
f 12/264/37 98/262/37 103/261/37
f 103/261/37 11/263/37 12/264/37
f 8/268/38 102/266/38 104/265/38
f 104/265/38 7/267/38 8/268/38
f 15/272/39 105/270/39 97/269/39
f 97/269/39 14/271/39 15/272/39
f 7/276/40 104/274/40 106/273/40
f 106/273/40 6/275/40 7/276/40
f 16/280/41 107/278/41 105/277/41
f 105/277/41 15/279/41 16/280/41
f 30/284/42 109/282/42 108/281/42
f 108/281/42 29/283/42 30/284/42
f 31/288/43 110/286/43 109/285/43
f 109/285/43 30/287/43 31/288/43
f 29/292/44 108/290/44 111/289/44
f 111/289/44 28/291/44 29/292/44
f 28/296/45 111/294/45 112/293/45
f 112/293/45 27/295/45 28/296/45
f 32/300/46 113/298/46 110/297/46
f 110/297/46 31/299/46 32/300/46
f 26/304/47 115/302/47 114/301/47
f 114/301/47 25/303/47 26/304/47
f 27/308/48 112/306/48 115/305/48
f 115/305/48 26/307/48 27/308/48
f 22/312/49 118/310/49 117/309/49
f 117/309/49 21/311/49 22/312/49
f 23/316/50 116/314/50 118/313/50
f 118/313/50 22/315/50 23/316/50
f 21/320/51 117/318/51 119/317/51
f 119/317/51 20/319/51 21/320/51
f 20/324/52 119/322/52 120/321/52
f 120/321/52 19/323/52 20/324/52
f 24/328/53 121/326/53 116/325/53
f 116/325/53 23/327/53 24/328/53
f 19/332/54 120/330/54 122/329/54
f 122/329/54 18/331/54 19/332/54
f 18/336/55 122/334/55 123/333/55
f 123/333/55 17/335/55 18/336/55
f 25/340/56 114/338/56 121/337/56
f 121/337/56 24/339/56 25/340/56
f 17/344/57 123/342/57 107/341/57
f 107/341/57 16/343/57 17/344/57
f 33/348/58 124/346/58 113/345/58
f 113/345/58 32/347/58 33/348/58
f 6/352/59 106/350/59 125/349/59
f 125/349/59 5/351/59 6/352/59
f 5/356/60 125/354/60 126/353/60
f 126/353/60 4/355/60 5/356/60
f 4/360/61 126/358/61 96/357/61
f 96/357/61 3/359/61 4/360/61
f 34/364/62 127/362/62 124/361/62
f 124/361/62 33/363/62 34/364/62
f 62/368/63 92/366/63 128/365/63
f 128/365/63 61/367/63 62/368/63
f 61/372/64 128/370/64 90/369/64
f 90/369/64 60/371/64 61/372/64
f 50/376/65 88/374/65 79/373/65
f 79/373/65 49/375/65 50/376/65
f 35/380/66 77/378/66 127/377/66
f 127/377/66 34/379/66 35/380/66

