# ProBuilder 5.0.7
# https://unity3d.com/unity/features/worldbuilding/probuilder
# 2024-03-20 21:22:12

mtllib ./Level05Border02.mtl
o Level05Border02

g PolyShape (2)
v 0.03176497 4.068203 0.04719162
v -0.8717766 4.068203 -0.5440292
v -4.759838 4.068203 4.599838
v -7.415829 4.068203 0.8541222
v -8.937759 4.068203 1.999805
v -5.212341 4.068203 5.639572
v -0.3438454 4.068203 12.74251
v 9.24918 4.068203 11.42478
v 17.1113 4.068201 9.471191
v 14.98646 4.068203 17.36035
v 9.136402 4.068203 22.95105
v 6.945507 4.068203 23.29462
v 5.109203 4.068203 23.81129
v 4.197037 4.068203 24.20372
v 3.526375 4.068203 22.66579
v -0.2779389 4.068203 22.8716
v -1.445602 4.068203 22.48544
v -2.714489 4.068203 23.15809
v -4.955753 4.068203 20.18469
v -7.002796 4.068203 21.30208
v -7.201607 4.068203 25.36908
v -3.410343 4.068203 29.3741
v 1.278915 4.068203 28.65469
v 10.82547 4.068203 23.46722
v 16.0569 4.068203 17.82254
v 19.15582 4.068203 18.58553
v 23.11745 4.068203 18.46154
v 27.6151 4.068203 16.92448
v 31.04741 4.068203 14.82269
v 33.60661 4.068203 10.00417
v 34.05976 4.068203 0.7379227
v 31.34351 4.068205 -10.74693
v 36.48484 4.068205 -12.74221
v 39.22556 4.068201 -16.09807
v 44.68141 4.068203 -17.61823
v 45.48033 4.068203 -0.6331921
v 42.2542 4.068203 7.922638
v 43.40353 4.068203 8.457756
v 47.38894 4.068203 -1.725536
v 46.08167 4.068203 -18.86573
v 29.4046 4.068203 -13.79082
v 24.83284 4.068203 -10.2649
v 30.46187 4.068203 -8.084097
v 33.00172 4.068203 1.101276
v 31.39786 4.068203 9.922714
v 24.0678 4.068203 13.4621
v 19.27878 4.068203 10.3937
v 22.46709 4.068203 1.626839
v 21.09678 4.068203 -6.429722
v 21.48477 4.068203 1.555962
v 16.65263 4.068203 8.708691
v 8.429798 4.068203 10.6429
v 0.08062361 4.068203 11.36896
v -3.982491 4.068201 5.172726
v -4.955753 0 20.18469
v -2.714489 0 23.15809
v -7.002796 0 21.30208
v -7.201607 0 25.36908
v -3.410343 0 29.3741
v 1.278915 0 28.65469
v -1.445602 0 22.48544
v -0.2779388 0 22.8716
v 3.526375 0 22.66579
v 4.197037 0 24.20372
v 5.109203 0 23.81129
v 6.945507 0 23.29462
v 10.82547 0 23.46722
v 9.136402 0 22.95105
v 14.98646 0 17.36035
v 16.0569 0 17.82254
v -3.982491 -1.907349E-06 5.172726
v -0.8717766 0 -0.5440292
v 0.03176498 0 0.04719162
v -4.759838 0 4.599838
v -8.937759 0 1.999805
v -7.415829 0 0.8541222
v -5.212341 0 5.639572
v 0.08062363 0 11.36896
v -0.3438454 0 12.74251
v 8.429798 0 10.6429
v 9.24918 0 11.42478
v 16.65263 0 8.708691
v 17.1113 -1.907349E-06 9.471191
v 22.46709 0 1.626839
v 21.48477 0 1.555962
v 21.09678 0 -6.429722
v 19.27878 0 10.3937
v 19.15582 0 18.58553
v 24.0678 0 13.4621
v 23.11745 0 18.46154
v 27.6151 0 16.92448
v 31.04741 0 14.82269
v 31.39786 0 9.922714
v 33.60661 0 10.00417
v 33.00172 0 1.101276
v 34.05976 0 0.7379227
v 30.46187 0 -8.084097
v 31.34351 1.907349E-06 -10.74693
v 24.83284 0 -10.2649
v 29.4046 0 -13.79082
v 36.48484 1.907349E-06 -12.74221
v 39.22556 -1.907349E-06 -16.09807
v 46.08167 0 -18.86573
v 44.68141 0 -17.61823
v 47.38894 0 -1.725536
v 45.48033 0 -0.6331921
v 42.2542 0 7.922638
v 43.40353 0 8.457756

vt -0.03176498 0.04719162
vt 0.8717766 -0.5440292
vt 4.759838 4.599838
vt 7.415829 0.8541222
vt 8.937759 1.999805
vt 5.212341 5.639572
vt 0.3438454 12.74251
vt -9.24918 11.42478
vt -17.1113 9.471191
vt -14.98646 17.36035
vt -9.136402 22.95105
vt -6.945507 23.29462
vt -5.109203 23.81129
vt -4.197037 24.20372
vt -3.526375 22.66579
vt 0.2779388 22.8716
vt 1.445602 22.48544
vt 2.714489 23.15809
vt 4.955753 20.18469
vt 7.002796 21.30208
vt 7.201607 25.36908
vt 3.410343 29.3741
vt -1.278915 28.65469
vt -10.82547 23.46722
vt -16.0569 17.82254
vt -19.15582 18.58553
vt -23.11745 18.46154
vt -27.6151 16.92448
vt -31.04741 14.82269
vt -33.60661 10.00417
vt -34.05976 0.7379227
vt -31.34351 -10.74693
vt -36.48484 -12.74221
vt -39.22556 -16.09807
vt -44.68141 -17.61823
vt -45.48033 -0.6331921
vt -42.2542 7.922638
vt -43.40353 8.457756
vt -47.38894 -1.725536
vt -46.08167 -18.86573
vt -29.4046 -13.79082
vt -24.83284 -10.2649
vt -30.46187 -8.084097
vt -33.00172 1.101276
vt -31.39786 9.922714
vt -24.0678 13.4621
vt -19.27878 10.3937
vt -22.46709 1.626839
vt -21.09678 -6.429722
vt -21.48477 1.555962
vt -16.65263 8.708691
vt -8.429798 10.6429
vt -0.08062363 11.36896
vt 3.982491 5.172726
vt -4.955753 20.18469
vt -2.714489 23.15809
vt -7.002796 21.30208
vt -7.201607 25.36908
vt -3.410343 29.3741
vt 1.278915 28.65469
vt -1.445602 22.48544
vt -0.2779388 22.8716
vt 3.526375 22.66579
vt 4.197037 24.20372
vt 5.109203 23.81129
vt 6.945507 23.29462
vt 10.82547 23.46722
vt 9.136402 22.95105
vt 14.98646 17.36035
vt 16.0569 17.82254
vt -3.982491 5.172726
vt -0.8717766 -0.5440292
vt 0.03176498 0.04719162
vt -4.759838 4.599838
vt -8.937759 1.999805
vt -7.415829 0.8541222
vt -5.212341 5.639572
vt 0.08062363 11.36896
vt -0.3438454 12.74251
vt 8.429798 10.6429
vt 9.24918 11.42478
vt 16.65263 8.708691
vt 17.1113 9.471191
vt 22.46709 1.626839
vt 21.48477 1.555962
vt 21.09678 -6.429722
vt 19.27878 10.3937
vt 19.15582 18.58553
vt 24.0678 13.4621
vt 23.11745 18.46154
vt 27.6151 16.92448
vt 31.04741 14.82269
vt 31.39786 9.922714
vt 33.60661 10.00417
vt 33.00172 1.101276
vt 34.05976 0.7379227
vt 30.46187 -8.084097
vt 31.34351 -10.74693
vt 24.83284 -10.2649
vt 29.4046 -13.79082
vt 36.48484 -12.74221
vt 39.22556 -16.09807
vt 46.08167 -18.86573
vt 44.68141 -17.61823
vt 47.38894 -1.725536
vt 45.48033 -0.6331921
vt 42.2542 7.922638
vt 43.40353 8.457756
vt -13.13553 0
vt -16.85902 0
vt -13.13553 4.068203
vt -16.85902 4.068203
vt 16.35301 0
vt 14.02086 0
vt 16.35301 4.068203
vt 14.02086 4.068203
vt 25.69044 0
vt 21.61859 0
vt 25.69044 4.068203
vt 21.61859 4.068203
vt 18.98763 0
vt 13.47275 0
vt 18.98763 4.068203
vt 13.47275 4.068203
vt -3.08114 0
vt -7.825262 0
vt -3.08114 4.068203
vt -7.825262 4.068203
vt 13.24497 0
vt 11.80882 0
vt 13.24497 4.068203
vt 11.80882 4.068203
vt -5.687729 0
vt -6.917592 0
vt -5.687729 4.068203
vt -6.917592 4.068203
vt -22.18583 0
vt -23.86362 0
vt -22.18583 4.068203
vt -23.86362 4.068203
vt 1.513086 -9.032097E-09
vt -2.296791 -9.032097E-09
vt 1.513086 4.068203
vt -2.296791 4.068203
vt 5.709652 0
vt 4.716656 0
vt 5.709652 4.068203
vt 4.716656 4.068203
vt 1.530997 0
vt -0.3766084 0
vt 1.530997 4.068203
vt -0.3766084 4.068203
vt -1.692563 0
vt -12.55748 0
vt -1.692563 4.068203
vt -12.55748 4.068203
vt -3.25275 0
vt -5.47042 0
vt -3.25275 4.068203
vt -5.47042 4.068203
vt 9.251708 0
vt 1.159792 0
vt 9.251708 4.068203
vt 1.159792 4.068203
vt -2.157189 0
vt -9.853315 0
vt -2.157189 4.068203
vt -9.853315 4.068203
vt 1.027363 0
vt -0.05241951 0
vt 1.027363 4.068203
vt -0.0524195 4.068203
vt -0.01756719 -1.560249E-10
vt -6.52797 -1.907505E-06
vt -0.0175672 4.068203
vt -6.52797 4.068201
vt 6.539649 0
vt 0.09167325 0
vt 6.539649 4.068203
vt 0.09167325 4.068203
vt 8.343385 0
vt 6.438427 0
vt 8.343385 4.068203
vt 6.438427 4.068203
vt 3.592721 0
vt -0.9990847 0
vt 3.592721 4.068203
vt -0.9990847 4.068203
vt 0.2128473 0
vt -4.995477 0
vt 0.2128473 4.068203
vt -4.995477 4.068203
vt -2.141829 -1.907349E-06
vt -9.55143 0
vt -2.141829 4.068201
vt -9.55143 4.068203
vt 10.31616 4.524499E-08
vt 1.704891 4.524499E-08
vt 10.31616 4.068203
vt 1.704891 4.068203
vt 0.9046218 -3.596334E-09
vt -7.476063 -3.596334E-09
vt 0.9046218 4.068203
vt -7.476063 4.068203
vt 7.608385 0
vt -2.074722 0
vt 7.608385 4.068203
vt -2.074722 4.068203
vt -5.768878 0
vt -14.21613 0
vt -5.768878 4.068203
vt -14.21613 4.068203
vt 14.32236 -1.907349E-06
vt 6.221162 0
vt 14.32236 4.068201
vt 6.221162 4.068203
vt 2.596759 0
vt -5.398345 0
vt 2.596759 4.068203
vt -5.398345 4.068203
vt 2.801216 0
vt -5.371049 0
vt 2.801216 4.068203
vt -5.371049 4.068203
vt 6.149863 0
vt -3.178758 0
vt 6.149863 4.068203
vt -3.178758 4.068203
vt -2.105763 0
vt -10.73774 0
vt -2.105763 4.068203
vt -10.73774 4.068203
vt 12.86547 0
vt 4.695165 -1.907349E-06
vt 12.86547 4.068203
vt 4.695165 4.068201
vt 23.0436 0
vt 19.85213 0
vt 23.0436 4.068203
vt 19.85213 4.068203
vt -21.83989 0
vt -27.52759 0
vt -21.83989 4.068203
vt -27.52759 4.068203
vt 22.52864 0
vt 18.56507 0
vt 22.52864 4.068203
vt 18.56507 4.068203
vt 20.65817 0
vt 15.90513 0
vt 20.65817 4.068203
vt 15.90513 4.068203
vt 18.73678 0
vt 14.71208 0
vt 18.73678 4.068203
vt 14.71208 4.068203
vt -15.8198 0
vt -23.95964 0
vt -15.8198 4.068203
vt -23.95964 4.068203
vt 6.928366 0
vt 1.47239 0
vt 6.928366 4.068203
vt 1.47239 4.068203
vt 4.14618 0
vt -4.819874 0
vt 4.14618 4.068203
vt -4.819874 4.068203
vt 0.9265962 0
vt -8.350728 0
vt 0.9265962 4.068203
vt -8.350728 4.068203
vt 9.856713 0
vt 0.3266599 0
vt 9.856713 4.068203
vt 0.3266599 4.068203
vt 3.244461 1.907349E-06
vt -8.557224 0
vt 3.244461 4.068205
vt -8.557224 4.068203
vt 25.48424 0
vt 19.44753 0
vt 25.48424 4.068203
vt 19.44753 4.068203
vt -25.93287 0
vt -31.70635 0
vt -25.93287 4.068203
vt -31.70635 4.068203
vt 38.62334 1.907349E-06
vt 33.10841 1.907349E-06
vt 38.62334 4.068205
vt 33.10841 4.068205
vt 37.28038 -1.907349E-06
vt 32.94756 1.907349E-06
vt 37.28038 4.068201
vt 32.94756 4.068205
vt -32.14579 0
vt -49.57792 0
vt -32.14579 4.068203
vt -49.57792 4.068203
vt 47.7707 0
vt 42.10703 -1.907349E-06
vt 47.7707 4.068203
vt 42.10703 4.068201
vt 15.30665 0
vt -1.883323 0
vt 15.30665 4.068203
vt -1.883323 4.068203
vt 1.504388 0
vt -15.49943 0
vt 1.504388 4.068203
vt -15.49943 4.068203
vt -7.49496 0
vt -16.63882 0
vt -7.49496 4.068203
vt -16.63882 4.068203
vt 42.91765 0
vt 41.64985 0
vt 42.91765 4.068203
vt 41.64985 4.068203
vt 18.87776 0
vt 7.94236 0
vt 18.87776 4.068203
vt 7.94236 4.068203

vn -1.609927E-07 1 2.460393E-07
vn 0 -1 0
vn 0.798552 0 -0.6019258
vn -0.4791234 0 -0.8777476
vn -0.9988074 0 -0.04882561
vn -0.7262215 0 0.6874608
vn 0.1516424 0 0.9884354
vn -0.4683737 0 -0.8835305
vn 0.3139909 0 -0.949426
vn 0.9166343 0 -0.3997268
vn -0.05402127 -3.957421E-10 -0.9985398
vn -0.3951893 0 -0.9185997
vn -0.2708475 0 -0.9626223
vn 0.477451 0 0.8786584
vn -0.1549241 0 -0.9879264
vn -0.6908997 0 -0.7229506
vn 0.7334449 0 0.679749
vn 0.5475372 0 -0.8367814
vn 0.7872837 2.883691E-09 0.616591
vn -0.7977492 0 -0.6029895
vn -0.601422 0 -0.7989315
vn 0.8157393 0 -0.5784197
vn -0.6988364 0 0.7152815
vn 0.8362437 0 -0.548358
vn -0.8248421 -6.042523E-09 0.5653632
vn -0.08663435 -3.173274E-10 -0.9962402
vn 0.1360858 0 0.990697
vn -0.2289751 0 -0.9734322
vn 0.2411478 0 0.9704884
vn -0.9988218 0 0.04852881
vn 0.9858418 0 -0.1676783
vn 0.9397811 0 0.3417771
vn -0.8286312 0 -0.5597948
vn -0.96559 0 -0.2600692
vn -0.2390706 0 0.9710022
vn 0.5394812 0 -0.8419976
vn 0.03128121 0 0.9995106
vn 0.3233842 0 0.9462678
vn 0.5222223 0 0.8528093
vn -0.4348232 0 -0.9005159
vn 0.8831636 0 0.4690651
vn -0.9838707 0 -0.1788812
vn 0.9988064 0 0.04884468
vn -0.9638323 0 0.2665094
vn 0.9731534 0 -0.2301576
vn -0.3612565 0 0.9324665
vn -0.6107099 0 -0.7918544
vn 0.3617973 0 0.9322568
vn 0.77452 0 0.6325494
vn -0.2911238 0 -0.9566854
vn 0.2684055 0 0.963306
vn 0.9971041 0 -0.07604861
vn -0.9988956 0 0.04698473
vn -0.9356914 0 -0.3528195
vn -0.4220836 0 0.9065569
vn 0.931223 0 0.36445

usemtl fullyTransparent
f 20/20/1 18/18/1 19/19/1
f 21/21/1 18/18/1 20/20/1
f 18/18/1 21/21/1 22/22/1
f 23/23/1 18/18/1 22/22/1
f 16/16/1 17/17/1 18/18/1
f 23/23/1 16/16/1 18/18/1
f 16/16/1 14/14/1 15/15/1
f 23/23/1 14/14/1 16/16/1
f 13/13/1 14/14/1 23/23/1
f 12/12/1 13/13/1 23/23/1
f 23/23/1 24/24/1 12/12/1
f 24/24/1 11/11/1 12/12/1
f 24/24/1 10/10/1 11/11/1
f 25/25/1 10/10/1 24/24/1
f 1/1/1 2/2/1 54/54/1
f 54/54/1 2/2/1 3/3/1
f 3/3/1 4/4/1 5/5/1
f 6/6/1 3/3/1 5/5/1
f 54/54/1 3/3/1 6/6/1
f 53/53/1 54/54/1 6/6/1
f 7/7/1 53/53/1 6/6/1
f 52/52/1 53/53/1 7/7/1
f 8/8/1 52/52/1 7/7/1
f 8/8/1 51/51/1 52/52/1
f 9/9/1 51/51/1 8/8/1
f 49/49/1 50/50/1 48/48/1
f 48/48/1 50/50/1 47/47/1
f 51/51/1 47/47/1 50/50/1
f 9/9/1 47/47/1 51/51/1
f 47/47/1 9/9/1 10/10/1
f 10/10/1 25/25/1 47/47/1
f 47/47/1 25/25/1 26/26/1
f 47/47/1 26/26/1 46/46/1
f 26/26/1 27/27/1 46/46/1
f 28/28/1 46/46/1 27/27/1
f 28/28/1 29/29/1 46/46/1
f 29/29/1 45/45/1 46/46/1
f 30/30/1 45/45/1 29/29/1
f 30/30/1 44/44/1 45/45/1
f 30/30/1 31/31/1 44/44/1
f 44/44/1 31/31/1 43/43/1
f 32/32/1 43/43/1 31/31/1
f 43/43/1 32/32/1 42/42/1
f 32/32/1 41/41/1 42/42/1
f 32/32/1 33/33/1 41/41/1
f 33/33/1 34/34/1 41/41/1
f 41/41/1 34/34/1 40/40/1
f 34/34/1 35/35/1 40/40/1
f 39/39/1 40/40/1 35/35/1
f 35/35/1 36/36/1 39/39/1
f 38/38/1 36/36/1 37/37/1
f 39/39/1 36/36/1 38/38/1
f 108/108/2 106/106/2 105/105/2
f 107/107/2 106/106/2 108/108/2
f 105/105/2 106/106/2 104/104/2
f 104/104/2 103/103/2 105/105/2
f 103/103/2 104/104/2 102/102/2
f 103/103/2 102/102/2 100/100/2
f 100/100/2 102/102/2 101/101/2
f 100/100/2 101/101/2 98/98/2
f 99/99/2 100/100/2 98/98/2
f 99/99/2 98/98/2 97/97/2
f 96/96/2 97/97/2 98/98/2
f 97/97/2 96/96/2 95/95/2
f 95/95/2 96/96/2 94/94/2
f 93/93/2 95/95/2 94/94/2
f 92/92/2 93/93/2 94/94/2
f 89/89/2 93/93/2 92/92/2
f 89/89/2 92/92/2 91/91/2
f 90/90/2 89/89/2 91/91/2
f 89/89/2 90/90/2 88/88/2
f 89/89/2 88/88/2 87/87/2
f 88/88/2 70/70/2 87/87/2
f 87/87/2 70/70/2 69/69/2
f 69/69/2 83/83/2 87/87/2
f 82/82/2 87/87/2 83/83/2
f 85/85/2 87/87/2 82/82/2
f 87/87/2 85/85/2 84/84/2
f 84/84/2 85/85/2 86/86/2
f 81/81/2 82/82/2 83/83/2
f 80/80/2 82/82/2 81/81/2
f 79/79/2 80/80/2 81/81/2
f 79/79/2 78/78/2 80/80/2
f 77/77/2 78/78/2 79/79/2
f 77/77/2 71/71/2 78/78/2
f 77/77/2 74/74/2 71/71/2
f 75/75/2 74/74/2 77/77/2
f 75/75/2 76/76/2 74/74/2
f 74/74/2 72/72/2 71/71/2
f 71/71/2 72/72/2 73/73/2
f 67/67/2 69/69/2 70/70/2
f 68/68/2 69/69/2 67/67/2
f 66/66/2 68/68/2 67/67/2
f 66/66/2 67/67/2 60/60/2
f 60/60/2 65/65/2 66/66/2
f 60/60/2 64/64/2 65/65/2
f 62/62/2 64/64/2 60/60/2
f 63/63/2 64/64/2 62/62/2
f 56/56/2 62/62/2 60/60/2
f 56/56/2 61/61/2 62/62/2
f 59/59/2 56/56/2 60/60/2
f 59/59/2 58/58/2 56/56/2
f 57/57/2 56/56/2 58/58/2
f 55/55/2 56/56/2 57/57/2
f 18/112/3 56/110/3 55/109/3
f 55/109/3 19/111/3 18/112/3
f 19/116/4 55/114/4 57/113/4
f 57/113/4 20/115/4 19/116/4
f 20/120/5 57/118/5 58/117/5
f 58/117/5 21/119/5 20/120/5
f 21/124/6 58/122/6 59/121/6
f 59/121/6 22/123/6 21/124/6
f 22/128/7 59/126/7 60/125/7
f 60/125/7 23/127/7 22/128/7
f 17/132/8 61/130/8 56/129/8
f 56/129/8 18/131/8 17/132/8
f 16/136/9 62/134/9 61/133/9
f 61/133/9 17/135/9 16/136/9
f 14/140/10 64/138/10 63/137/10
f 63/137/10 15/139/10 14/140/10
f 15/144/11 63/142/11 62/141/11
f 62/141/11 16/143/11 15/144/11
f 13/148/12 65/146/12 64/145/12
f 64/145/12 14/147/12 13/148/12
f 12/152/13 66/150/13 65/149/13
f 65/149/13 13/151/13 12/152/13
f 23/156/14 60/154/14 67/153/14
f 67/153/14 24/155/14 23/156/14
f 11/160/15 68/158/15 66/157/15
f 66/157/15 12/159/15 11/160/15
f 10/164/16 69/162/16 68/161/16
f 68/161/16 11/163/16 10/164/16
f 24/168/17 67/166/17 70/165/17
f 70/165/17 25/167/17 24/168/17
f 1/172/18 73/170/18 72/169/18
f 72/169/18 2/171/18 1/172/18
f 54/176/19 71/174/19 73/173/19
f 73/173/19 1/175/19 54/176/19
f 2/180/20 72/178/20 74/177/20
f 74/177/20 3/179/20 2/180/20
f 4/184/21 76/182/21 75/181/21
f 75/181/21 5/183/21 4/184/21
f 3/188/22 74/186/22 76/185/22
f 76/185/22 4/187/22 3/188/22
f 5/192/23 75/190/23 77/189/23
f 77/189/23 6/191/23 5/192/23
f 53/196/24 78/194/24 71/193/24
f 71/193/24 54/195/24 53/196/24
f 6/200/25 77/198/25 79/197/25
f 79/197/25 7/199/25 6/200/25
f 52/204/26 80/202/26 78/201/26
f 78/201/26 53/203/26 52/204/26
f 7/208/27 79/206/27 81/205/27
f 81/205/27 8/207/27 7/208/27
f 51/212/28 82/210/28 80/209/28
f 80/209/28 52/211/28 51/212/28
f 8/216/29 81/214/29 83/213/29
f 83/213/29 9/215/29 8/216/29
f 49/220/30 86/218/30 85/217/30
f 85/217/30 50/219/30 49/220/30
f 48/224/31 84/222/31 86/221/31
f 86/221/31 49/223/31 48/224/31
f 47/228/32 87/226/32 84/225/32
f 84/225/32 48/227/32 47/228/32
f 50/232/33 85/230/33 82/229/33
f 82/229/33 51/231/33 50/232/33
f 9/236/34 83/234/34 69/233/34
f 69/233/34 10/235/34 9/236/34
f 25/240/35 70/238/35 88/237/35
f 88/237/35 26/239/35 25/240/35
f 46/244/36 89/242/36 87/241/36
f 87/241/36 47/243/36 46/244/36
f 26/248/37 88/246/37 90/245/37
f 90/245/37 27/247/37 26/248/37
f 27/252/38 90/250/38 91/249/38
f 91/249/38 28/251/38 27/252/38
f 28/256/39 91/254/39 92/253/39
f 92/253/39 29/255/39 28/256/39
f 45/260/40 93/258/40 89/257/40
f 89/257/40 46/259/40 45/260/40
f 29/264/41 92/262/41 94/261/41
f 94/261/41 30/263/41 29/264/41
f 44/268/42 95/266/42 93/265/42
f 93/265/42 45/267/42 44/268/42
f 30/272/43 94/270/43 96/269/43
f 96/269/43 31/271/43 30/272/43
f 43/276/44 97/274/44 95/273/44
f 95/273/44 44/275/44 43/276/44
f 31/280/45 96/278/45 98/277/45
f 98/277/45 32/279/45 31/280/45
f 42/284/46 99/282/46 97/281/46
f 97/281/46 43/283/46 42/284/46
f 41/288/47 100/286/47 99/285/47
f 99/285/47 42/287/47 41/288/47
f 32/292/48 98/290/48 101/289/48
f 101/289/48 33/291/48 32/292/48
f 33/296/49 101/294/49 102/293/49
f 102/293/49 34/295/49 33/296/49
f 40/300/50 103/298/50 100/297/50
f 100/297/50 41/299/50 40/300/50
f 34/304/51 102/302/51 104/301/51
f 104/301/51 35/303/51 34/304/51
f 39/308/52 105/306/52 103/305/52
f 103/305/52 40/307/52 39/308/52
f 35/312/53 104/310/53 106/309/53
f 106/309/53 36/311/53 35/312/53
f 36/316/54 106/314/54 107/313/54
f 107/313/54 37/315/54 36/316/54
f 37/320/55 107/318/55 108/317/55
f 108/317/55 38/319/55 37/320/55
f 38/324/56 108/322/56 105/321/56
f 105/321/56 39/323/56 38/324/56

